<svg width="20" height="21" viewBox="0 0 20 21" fill="none" xmlns="http://www.w3.org/2000/svg">
<path d="M9.95036 7.321L9.40336 9.511C10.0224 9.665 11.9324 10.295 12.2414 9.055C12.5634 7.764 10.5684 7.476 9.95036 7.321ZM9.12836 10.617L8.52536 13.032C9.26836 13.217 11.5624 13.953 11.9014 12.591C12.2564 11.169 9.87236 10.802 9.12836 10.617Z" fill="black"/>
<path d="M12.4184 0.801C7.06136 -0.534 1.63836 2.726 0.303356 8.083C-1.03264 13.438 2.22736 18.863 7.58036 20.199C12.9374 21.534 18.3634 18.275 19.6974 12.918C21.0334 7.562 17.7734 2.137 12.4184 0.801ZM14.4094 9.076C14.2644 10.05 13.7234 10.521 13.0074 10.687C13.9924 11.199 14.4924 11.985 14.0164 13.348C13.4244 15.039 12.0184 15.182 10.1464 14.828L9.69236 16.648L8.59636 16.375L9.04336 14.581C8.75093 14.508 8.45924 14.432 8.16836 14.353L7.71936 16.157L6.62436 15.882L7.07836 14.059C6.82136 13.993 6.56136 13.923 6.29636 13.857L4.86736 13.502L5.41336 12.246C5.41336 12.246 6.22136 12.461 6.21036 12.445C6.52136 12.522 6.65836 12.32 6.71236 12.184L7.43136 9.309L7.54636 9.338C7.50926 9.32304 7.47117 9.31068 7.43236 9.301L7.94436 7.248C7.95736 7.014 7.87836 6.72 7.43336 6.609C7.45136 6.598 6.63636 6.411 6.63636 6.411L6.92736 5.239L8.44136 5.617L8.44036 5.622C8.66736 5.679 8.90136 5.733 9.14036 5.787L9.58936 3.985L10.6864 4.258L10.2464 6.024C10.5404 6.091 10.8374 6.159 11.1254 6.231L11.5634 4.476L12.6604 4.749L12.2114 6.551C13.5954 7.03 14.6074 7.746 14.4094 9.076Z" fill="black"/>
</svg>
