<svg width="16" height="13" viewBox="0 0 16 13" fill="none" xmlns="http://www.w3.org/2000/svg">
<path d="M0 2.5C0 1.96957 0.210714 1.46086 0.585786 1.08579C0.960859 0.710714 1.46957 0.5 2 0.5H14C14.5304 0.5 15.0391 0.710714 15.4142 1.08579C15.7893 1.46086 16 1.96957 16 2.5V7.5H0V2.5ZM11.5 3.5C11.3674 3.5 11.2402 3.55268 11.1464 3.64645C11.0527 3.74021 11 3.86739 11 4V5C11 5.13261 11.0527 5.25979 11.1464 5.35355C11.2402 5.44732 11.3674 5.5 11.5 5.5H13.5C13.6326 5.5 13.7598 5.44732 13.8536 5.35355C13.9473 5.25979 14 5.13261 14 5V4C14 3.86739 13.9473 3.74021 13.8536 3.64645C13.7598 3.55268 13.6326 3.5 13.5 3.5H11.5ZM0 9.5V10.5C0 11.0304 0.210714 11.5391 0.585786 11.9142C0.960859 12.2893 1.46957 12.5 2 12.5H14C14.5304 12.5 15.0391 12.2893 15.4142 11.9142C15.7893 11.5391 16 11.0304 16 10.5V9.5H0Z" fill="black"/>
</svg>
