<svg width="53" height="55" viewBox="0 0 53 55" fill="none" xmlns="http://www.w3.org/2000/svg">
<path fill-rule="evenodd" clip-rule="evenodd" d="M15.3209 0.337504C11.0718 0.539491 7.38895 1.63398 4.41512 4.75387C1.43089 7.89015 0.404948 11.7856 0.212752 16.2157C0.0932787 18.9808 -0.605339 39.8702 1.42051 45.3484C2.78665 49.0443 5.47732 51.8859 9.01736 53.3299C10.6692 54.0068 12.5548 54.465 15.3209 54.5988C38.4493 55.7015 47.0227 55.1012 50.6381 45.3484C51.2796 43.6124 51.7211 41.6275 51.8432 38.7205C52.9003 14.2909 51.6718 8.99562 47.6409 4.75387C44.4437 1.39377 40.6829 -0.893529 15.3209 0.337504ZM15.5338 49.6856C13.0015 49.5655 11.6276 49.1209 10.7108 48.747C8.40443 47.8026 6.67208 45.985 5.78123 43.5693C4.23847 39.4067 4.75014 19.6364 4.8878 16.4373C5.02285 13.3037 5.6254 10.4399 7.72397 8.22896C10.3212 5.49937 13.6768 4.16163 36.5247 5.24801C39.5063 5.38994 42.2309 6.02346 44.3346 8.22896C46.9319 10.9585 48.2201 14.521 47.1708 38.5003C47.0565 41.1617 46.6332 42.6057 46.2774 43.5693C43.9269 49.9155 38.5194 50.7965 15.5338 49.6856ZM36.7766 12.8964C36.7766 14.7034 38.1714 16.1728 39.8934 16.1728C41.6153 16.1728 43.0126 14.7034 43.0126 12.8964C43.0126 11.0895 41.6153 9.62141 39.8934 9.62141C38.1714 9.62141 36.7766 11.0895 36.7766 12.8964ZM12.6925 27.4668C12.6925 35.2079 18.6635 41.484 26.0293 41.484C33.3951 41.484 39.3661 35.2079 39.3661 27.4668C39.3661 19.7257 33.3951 13.4537 26.0293 13.4537C18.6635 13.4537 12.6925 19.7257 12.6925 27.4668ZM17.3727 27.4668C17.3727 22.4444 21.2478 18.3695 26.0293 18.3695C30.8108 18.3695 34.6859 22.4444 34.6859 27.4668C34.6859 32.4919 30.8108 36.5681 26.0293 36.5681C21.2478 36.5681 17.3727 32.4919 17.3727 27.4668Z" fill="#58595B"/>
</svg>
