<svg width="41" height="41" viewBox="0 0 41 41" fill="none" xmlns="http://www.w3.org/2000/svg">
<path fill-rule="evenodd" clip-rule="evenodd" d="M12.0328 0.251594C8.69563 0.402166 5.80317 1.21806 3.46756 3.54379C1.1238 5.88175 0.31804 8.78566 0.167092 12.0881C0.0732596 14.1493 -0.475424 29.7214 1.11564 33.8052C2.18859 36.5603 4.3018 38.6786 7.08209 39.755C8.37942 40.2596 9.86038 40.6012 12.0328 40.7009C30.1975 41.523 36.9309 41.0754 39.7704 33.8052C40.2742 32.5111 40.621 31.0314 40.7169 28.8644C41.5471 10.6532 40.5823 6.70583 37.4164 3.54379C34.9054 1.03899 31.9517 -0.666085 12.0328 0.251594ZM12.2 37.0384C10.2112 36.9488 9.13213 36.6174 8.41208 36.3387C6.60071 35.6346 5.24015 34.2797 4.54048 32.4789C3.32883 29.3759 3.73069 14.638 3.8388 12.2533C3.94487 9.91734 4.4181 7.78247 6.06629 6.13431C8.10611 4.09953 10.7415 3.1023 28.6859 3.91215C31.0276 4.01795 33.1675 4.49022 34.8197 6.13431C36.8595 8.16907 37.8713 10.8248 37.0472 28.7002C36.9575 30.6842 36.625 31.7606 36.3455 32.4789C34.4995 37.2098 30.2525 37.8665 12.2 37.0384ZM28.8838 9.6137C28.8838 10.9607 29.9792 12.0561 31.3316 12.0561C32.684 12.0561 33.7815 10.9607 33.7815 9.6137C33.7815 8.26669 32.684 7.17232 31.3316 7.17232C29.9792 7.17232 28.8838 8.26669 28.8838 9.6137ZM9.96847 20.4753C9.96847 26.2459 14.658 30.9244 20.443 30.9244C26.228 30.9244 30.9175 26.2459 30.9175 20.4753C30.9175 14.7046 26.228 10.0291 20.443 10.0291C14.658 10.0291 9.96847 14.7046 9.96847 20.4753ZM13.6442 20.4753C13.6442 16.7313 16.6877 13.6937 20.443 13.6937C24.1983 13.6937 27.2418 16.7313 27.2418 20.4753C27.2418 24.2213 24.1983 27.2598 20.443 27.2598C16.6877 27.2598 13.6442 24.2213 13.6442 20.4753Z" fill="#58595B"/>
</svg>
