<svg width="18" height="18" viewBox="0 0 18 18" fill="none" xmlns="http://www.w3.org/2000/svg">
<path fill-rule="evenodd" clip-rule="evenodd" d="M5.28269 0.110456C3.8176 0.176561 2.54773 0.534757 1.52234 1.55581C0.493375 2.58223 0.139627 3.85712 0.0733576 5.30697C0.0321628 6.2119 -0.208723 13.0484 0.489794 14.8413C0.960845 16.0509 1.8886 16.9809 3.10921 17.4534C3.67877 17.675 4.32895 17.8249 5.28269 17.8687C13.2574 18.2296 16.2136 18.0331 17.4602 14.8413C17.6814 14.2732 17.8336 13.6236 17.8757 12.6722C18.2402 4.67702 17.8166 2.94402 16.4267 1.55581C15.3243 0.456142 14.0276 -0.292428 5.28269 0.110456ZM5.35611 16.2607C4.48296 16.2214 4.00923 16.0759 3.69311 15.9536C2.89787 15.6445 2.30055 15.0496 1.99338 14.259C1.46144 12.8967 1.63786 6.42645 1.68533 5.37948C1.73189 4.35395 1.93966 3.41669 2.66325 2.69311C3.55878 1.79979 4.7158 1.36199 12.5938 1.71753C13.6219 1.76398 14.5613 1.97132 15.2867 2.69311C16.1822 3.58642 16.6264 4.75234 16.2646 12.6001C16.2252 13.4711 16.0793 13.9437 15.9566 14.259C15.1461 16.336 13.2816 16.6243 5.35611 16.2607ZM12.6807 4.22065C12.6807 4.81203 13.1616 5.29291 13.7553 5.29291C14.3491 5.29291 14.8309 4.81203 14.8309 4.22065C14.8309 3.62928 14.3491 3.14882 13.7553 3.14882C13.1616 3.14882 12.6807 3.62928 12.6807 4.22065ZM4.3764 8.98914C4.3764 11.5226 6.43524 13.5766 8.97498 13.5766C11.5147 13.5766 13.5736 11.5226 13.5736 8.98914C13.5736 6.4557 11.5147 4.40302 8.97498 4.40302C6.43524 4.40302 4.3764 6.4557 4.3764 8.98914ZM5.99016 8.98914C5.99016 7.34544 7.3263 6.01185 8.97498 6.01185C10.6237 6.01185 11.9598 7.34544 11.9598 8.98914C11.9598 10.6337 10.6237 11.9677 8.97498 11.9677C7.3263 11.9677 5.99016 10.6337 5.99016 8.98914Z" fill="#58595B"/>
</svg>
