<svg width="17" height="19" viewBox="0 0 17 19" fill="none" xmlns="http://www.w3.org/2000/svg">
<path d="M16.0553 6.98726C16.1763 7.55026 16.1613 8.23326 16.0153 9.03826C15.4333 12.0163 13.5383 13.5043 10.3323 13.5043H9.89035C9.727 13.5033 9.56898 13.5624 9.44635 13.6703C9.31927 13.7803 9.23472 13.9314 9.20735 14.0973L9.16635 14.2863L8.61335 17.7653L8.59234 17.9163C8.56381 18.0833 8.47614 18.2345 8.34535 18.3423C8.22194 18.4509 8.06273 18.51 7.89835 18.5083H5.37534C5.31219 18.5116 5.24917 18.4997 5.19157 18.4736C5.13397 18.4475 5.08348 18.4079 5.04435 18.3583C5.00459 18.3075 4.97602 18.249 4.96051 18.1864C4.945 18.1238 4.9429 18.0587 4.95435 17.9953C5.01535 17.6223 5.10235 17.0573 5.22135 16.3063C5.33835 15.5563 5.42735 14.9923 5.48835 14.6173C5.54935 14.2423 5.63834 13.6793 5.76034 12.9323C5.88134 12.1843 5.97234 11.6223 6.03134 11.2473C6.06434 10.9993 6.21035 10.8763 6.46435 10.8763H7.78035C8.67335 10.8893 9.46235 10.8193 10.1553 10.6653C11.3273 10.4033 12.2893 9.92126 13.0413 9.21626C13.7263 8.57926 14.2443 7.75427 14.6013 6.74327C14.7633 6.27327 14.8783 5.82626 14.9533 5.40526C14.9593 5.36426 14.9673 5.33926 14.9783 5.33126C14.9863 5.32026 15.0003 5.31727 15.0133 5.32026C15.0351 5.32996 15.0558 5.34167 15.0753 5.35526C15.5993 5.75326 15.9293 6.29626 16.0553 6.98726ZM14.3273 4.15126C14.3273 4.86827 14.1733 5.65926 13.8623 6.52526C13.3253 8.08727 12.3153 9.14326 10.8253 9.69326C10.0673 9.96227 9.22334 10.1013 8.29034 10.1183C8.29034 10.1243 7.98935 10.1253 7.38635 10.1253L6.48335 10.1183C5.81135 10.1183 5.41635 10.4383 5.29635 11.0823C5.28335 11.1353 4.99835 12.9123 4.44135 16.4113C4.43335 16.4773 4.39334 16.5133 4.32034 16.5133H1.35535C1.28547 16.5147 1.21614 16.5007 1.15233 16.4722C1.08853 16.4436 1.03184 16.4013 0.986345 16.3483C0.93914 16.2961 0.904292 16.2339 0.884384 16.1664C0.864477 16.0989 0.86002 16.0277 0.871345 15.9583L3.20335 1.16326C3.23321 0.97394 3.3314 0.802115 3.47935 0.680265C3.62359 0.556111 3.80803 0.48859 3.99835 0.490265H10.0123C10.2403 0.490265 10.5673 0.534265 10.9913 0.621265C11.4193 0.705265 11.7923 0.815265 12.1143 0.942265C12.8323 1.21626 13.3803 1.63026 13.7593 2.17926C14.1383 2.73126 14.3273 3.38626 14.3273 4.15126Z" fill="black"/>
</svg>
